<?xml version="1.0" encoding="utf-8"?>
<!-- Generator: Adobe Illustrator 19.0.1, SVG Export Plug-In . SVG Version: 6.00 Build 0)  -->
<svg version="1.1" xmlns="http://www.w3.org/2000/svg" xmlns:xlink="http://www.w3.org/1999/xlink" x="0px" y="0px"
	 viewBox="0 0 3600 900" style="enable-background:new 0 0 3600 900;" xml:space="preserve">
<style type="text/css">
	.st0{display:none;fill:#191919;}
	.st1{fill:#FFFFFF;}
	.st2{fill:#999999;}
	.st3{fill:#CCCCCC;}
</style>
<g id="Calque_3">
	<rect id="XMLID_849_" x="0" y="0" class="st0" width="3600" height="900"/>
</g>
<g id="Calque_16">
	<g id="XMLID_342_">
		<path id="XMLID_847_" class="st1" d="M990.1,637H863.5c-27.8,0-49-4.3-63.9-12.8c-14.8-8.5-22.3-23.4-22.3-44.6V397.5H825v173.7
			c0,12.3,3.9,20.8,11.7,25.6c5.9,3.7,18.5,5.5,37.8,5.5h115.6V637z"/>
		<path id="XMLID_845_" class="st1" d="M1249.1,576.7c0,10.8-1.1,19.1-3.3,24.9c-3,7.8-8.9,14.9-17.5,21.3
			c-8.6,6.4-17.7,10.5-27.3,12.4c-6.5,1.1-17.3,1.7-32.3,1.7h-74.4c-14.4,0-25-0.7-31.8-2.2c-10.2-1.9-19.4-5.9-27.5-12
			c-9.1-6.9-15.2-14-18.2-21.3c-1.9-5.1-2.9-13.4-2.9-24.9v-179h47.6v172.5c0,12.4,3.3,20.9,9.8,25.2c6.5,4.4,18.4,6.6,35.6,6.6h49
			c16.9,0,28.7-2.1,35.4-6.3c6.7-4.2,10-12.4,10-24.5V397.7h47.6V576.7z"/>
		<path id="XMLID_836_" class="st1" d="M1623.4,638.2H1578V449.9l-84,167.7c-8.1,16.4-19.5,24.6-34.2,24.6c-8.8,0-16-2.4-21.5-7.2
			c-3.3-3.2-6.9-8.5-10.8-16l-85.9-169.2v188.3h-45.5V429.8c0-9.1,3.6-16.6,10.8-22.6s17.1-9,29.9-9c19.3,0,32.5,7.4,39.7,22.3
			l82.8,169.6l84.2-169.9c7.5-15,20.6-22.5,39.2-22.5c13.1,0,23.1,3.1,30.1,9.2c7,6.1,10.5,14,10.5,23.6V638.2z"/>
		<path id="XMLID_774_" class="st1" d="M1718,637h-47.6V397h47.6V637z"/>
		<path id="XMLID_772_" class="st1" d="M1968.7,432.7h-122c-19.9,0-32.4,3.7-37.3,11c-2.9,4.5-4.3,14.6-4.3,30.4
			c0,8.3,3.7,14.8,11.2,19.4c6.2,3.7,16.3,5.5,30.4,5.5h50.5c21.5,0,38.8,4.3,51.7,12.9s19.4,20.7,19.4,36.4V586
			c0,16.4-6.6,29-19.9,37.8c-13.2,8.8-31.3,13.2-54.3,13.2h-136.1v-34.9h122c20.3,0,32.9-4,37.8-12c2.2-4.1,3.3-14.9,3.3-32.3
			c0-16.3-13.2-24.4-39.7-24.4h-50.5c-20.9,0-38-4-51.4-12c-14.7-8.8-22-20.7-22-35.9v-37.3c0-16.7,8-30.1,23.9-40
			c11.2-7,27.4-10.5,48.6-10.5h138.8V432.7z"/>
		<path id="XMLID_769_" class="st1" d="M2228.2,432.4h-125.4c-13.7,0-23.5,1.8-29.4,5.5c-7.2,4.9-10.8,11.8-10.8,20.6v113.2
			c0,11.3,3.2,19.2,9.6,23.7c6.4,4.5,17.4,6.7,33,6.7h122.5V637h-140.2c-23.1,0-41-4.7-53.6-14.2c-12.6-9.5-18.9-22.7-18.9-39.6
			V450.9c0-19.8,6.7-33.9,20.1-42.3c11.5-7.3,30.2-11,56.2-11h136.9V432.4z"/>
		<path id="XMLID_755_" class="st1" d="M2538.9,637h-51l-28.5-58.6h-129.2l-28.5,58.6h-51L2357,419.5c7.2-14.4,19.8-21.5,37.8-21.5
			c18,0,30.6,7.2,37.8,21.5L2538.9,637z M2444.4,545.6l-51.9-106.5l-47.1,106.5H2444.4z"/>
		<path id="XMLID_751_" class="st1" d="M2793.6,495.6c0,16-6.3,28.5-18.9,37.7c-12.6,9.2-29.8,13.8-51.7,13.8h-116.5v90h-47.6V397
			h161.7c20.9,0,37.9,3.9,51,11.7c14,8.6,21.2,20.4,21.5,35.4C2793.4,460.3,2793.6,477.4,2793.6,495.6z M2745.9,484.4v-28.5
			c0-16.1-12.7-24.2-38-24.2h-101.4v79.7h100.2C2732.9,511.4,2745.9,502.4,2745.9,484.4z"/>
		<path id="XMLID_749_" class="st1" d="M3076.5,637h-47.4V534.8H2886V637h-47.6V397.7h47.6v102.6h143.1V397.7h47.4V637z"/>
		<path id="XMLID_360_" class="st1" d="M3256.4,534.8h-85.3v40.4c0,17.9,13.9,26.8,41.6,26.8h123V637h-135.9
			c-23.4,0-41.7-4.1-54.8-12.2c-14.4-9.1-21.5-21.9-21.5-38.5V451.6c0-16.6,6.4-29.6,19.1-39.1c12.8-9.5,30.4-14.2,52.9-14.2h140.2
			v34.9h-123.5c-27.4,0-41.2,8.8-41.2,26.3v40.9h85.3V534.8z"/>
	</g>
	<g id="XMLID_163_">
		<path id="XMLID_340_" class="st1" d="M596.3,490.4v81.7l42.5-24.5c17-9.8,27.5-28,27.5-47.6v-50L596.3,490.4z"/>
		<g id="XMLID_300_">
			<path id="XMLID_335_" class="st1" d="M706.3,371.3v-98.1l-220,127l85,49.1c9.3,5.4,20.7,5.4,30,0l90-52
				C700.6,392,706.3,382.1,706.3,371.3z"/>
		</g>
		<g id="XMLID_177_">
			<path id="XMLID_296_" class="st1" d="M436.3,647.9c0.8,0.5,1.6,0.9,2.5,1.3L344,594.4c0.7,0.5,1.5,1,2.3,1.5L436.3,647.9z"/>
			<path id="XMLID_295_" class="st1" d="M438.7,649.2c-0.8-0.4-1.7-0.8-2.5-1.3l-90-52c-0.8-0.5-1.6-1-2.3-1.5
				c-7.9-5.6-12.7-14.7-12.7-24.5V466v-98.1l-42.5,24.5c-17,9.8-27.5,28-27.5,47.6v106.6v49.2c0,19.6,10.5,37.8,27.5,47.6l42.5,24.5
				l21.7,12.5c17,9.8,38,9.8,55,0l42.6-24.6L438.7,649.2z"/>
		</g>
		<path id="XMLID_165_" class="st1" d="M533.8,472.4l-42.5-24.5l-22.5-13c-17-9.8-38-9.8-55,0l-42.5,24.6l14,8.1l92,53.1
			c8.7,5.5,14,15,14,25.4V650v16.4l42.5-24.5c17-9.8,27.5-28,27.5-47.6v-25v-49.1C561.3,500.4,550.8,482.3,533.8,472.4z"/>
		<path id="XMLID_164_" class="st1" d="M451.3,298.5v-0.2l-62.5,36.2c-17,9.8-27.5,28-27.5,47.6v49.1l90-51.8v0l122.5-70.7
			c17-9.8,27.5-28,27.5-47.6v-49L451.3,298.5z"/>
	</g>
</g>
</svg>
